<svg width="750" height="501" viewBox="0 0 750 501" fill="none" xmlns="http://www.w3.org/2000/svg">
    <mask id="mask0_8486_9" style="mask-type:luminance" maskUnits="userSpaceOnUse" x="0" y="0" width="750" height="501">
        <path d="M750 0H0V500.017H750V0Z" fill="white"/>
    </mask>
    <g mask="url(#mask0_8486_9)">
        <path d="M785.166 0H-35V401.582H785.166V0Z" fill="#96D1F2" fill-opacity="0.81"/>
        <path opacity="0.3" d="M177.577 160.623C182.487 130.887 162.361 102.8 132.624 97.8903C102.887 92.9803 74.8 113.106 69.8901 142.843C64.9802 172.579 85.1066 200.666 114.844 205.576C144.581 210.486 172.668 190.36 177.577 160.623Z" fill="#FEC928"/>
        <path opacity="0.3" d="M152.204 180.188C167.92 164.472 167.92 138.991 152.204 123.275C136.488 107.559 111.007 107.559 95.291 123.275C79.5749 138.991 79.5749 164.472 95.291 180.188C111.007 195.905 136.488 195.905 152.204 180.188Z" fill="#FEC928"/>
        <path opacity="0.3" d="M145.678 173.662C157.789 161.55 157.789 141.913 145.678 129.802C133.566 117.69 113.929 117.69 101.818 129.802C89.706 141.913 89.706 161.55 101.818 173.662C113.929 185.773 133.566 185.773 145.678 173.662Z" fill="#FEC928"/>
        <path d="M139.281 167.265C147.86 158.686 147.86 144.777 139.281 136.198C130.702 127.619 116.793 127.619 108.214 136.198C99.635 144.777 99.635 158.686 108.214 167.265C116.793 175.844 130.702 175.844 139.281 167.265Z" fill="#FEEA3C"/>
        <g opacity="0.7">
            <path d="M65.96 408.883C68.66 402.016 70.451 392.146 65.852 386.375C95.902 405.32 134.401 410.25 168.255 399.49C173.883 397.701 179.502 395.433 183.951 391.55C188.4 387.666 193.033 382.033 192.52 376.149C201.56 377.47 211.185 372.902 215.878 365.064C220.571 357.225 222.662 346.945 217.228 339.601C245.334 342.216 274.206 325.354 285.738 299.59C295.515 277.745 292.21 250.872 278.378 231.486C257.448 217.934 232.082 211.023 207.284 213.469C180.959 216.066 157.076 229.279 141.347 250.548C143.684 244.831 140.789 237.52 135.172 234.954C129.554 232.387 123.233 235.721 120.441 241.23C117.467 226.292 104.092 214.039 88.951 212.38C73.81 210.722 58.56 218.521 52.423 232.461C44.581 215.891 27.305 204.201 9.007 203.083C-9.291 201.965 -26.199 212.337 -36 227.829V422.06L53.101 425.275C58.497 420.757 63.392 415.415 65.96 408.883Z" fill="white"/>
            <path d="M618.113 294.877C605.959 299.914 590.496 309.524 586.876 321.544C584.4 265.132 554.297 215.67 506.806 189.978C498.911 185.707 490.357 182.011 480.678 181.547C470.998 181.083 458.706 182.474 451.005 189.995C444.164 178.188 428.561 172.663 413.141 176.586C397.719 180.51 381.397 190.263 376.389 205.085C353.042 170.136 301.839 157.288 254.891 174.598C215.085 189.276 180.84 224.716 167.129 263.26C168.357 302.972 183.091 339.881 210.309 365.111C239.204 391.894 280.536 403.388 325.255 396.138C315.05 400.23 307.65 412.135 309.471 421.529C311.291 430.926 322.003 434.16 332.355 430.829C314.411 451.817 310.193 481.432 322.422 500.554C334.652 519.675 360.155 527.767 385.459 518.285C369.917 546.718 370.228 580.091 386.242 602.154C402.256 624.218 432.934 631.155 463.917 623.997L734.368 394.933L653.286 290.124C641.813 289.335 629.675 290.085 618.113 294.877Z" fill="white"/>
            <path d="M485.379 381.066C469.813 369.968 449.563 366.334 431.681 373.096C431.85 367.69 429.436 362.259 425.309 358.763C421.182 355.266 415.429 353.777 410.124 354.832C406.836 355.486 403.24 356.733 401.725 359.572C403.122 355.822 401.677 351.24 398.619 348.576C395.301 345.686 390.519 344.875 386.195 345.691C381.871 346.507 378.551 347.636 375.058 350.311C373.183 333.809 367.425 317.546 357.144 304.502C346.863 291.459 331.863 281.856 315.416 279.548C298.969 277.24 282.115 281.574 270.955 293.874C272.062 291.187 271.149 288.07 269.672 285.567C267.112 281.229 262.841 277.932 257.995 276.556C253.15 275.179 247.992 276.417 243.533 278.761C234.032 254.073 217.713 231.819 196.094 216.576C194.84 215.692 193.566 214.835 192.277 214C206.109 233.386 209.414 260.259 199.637 282.104C188.105 307.869 159.233 324.731 131.127 322.115C136.561 329.459 134.47 339.739 129.777 347.578C125.084 355.417 115.459 359.984 106.419 358.663C106.933 364.547 102.3 370.18 97.85 374.064C93.401 377.948 87.782 380.216 82.154 382.004C48.299 392.764 9.801 387.833 -20.249 368.889C-15.65 374.66 -17.441 384.53 -20.141 391.397C-22.709 397.929 -27.604 403.271 -33 407.788L517.077 427.637C511.448 409.368 500.945 392.164 485.379 381.066Z" fill="#E3F1FC" fill-opacity="0.82"/>
        </g>
        <path d="M555.189 60.64C555.191 60.791 557.542 64.137 557.648 64.32C557.694 64.399 557.722 64.462 557.748 64.506C556.856 64.865 555.952 65.198 555.052 65.451C552.939 66.045 553.271 66.479 555.231 65.989C555.943 65.811 556.984 65.638 558.022 65.491C558.021 65.541 558.025 65.608 558.023 65.695C558.017 65.906 557.536 69.967 557.606 70.101C557.676 70.234 558.581 70.123 558.749 69.995C558.905 69.876 561.569 65.877 561.803 65.034C564.698 64.742 566.509 64.323 568.632 63.783C569.584 63.541 571.698 63.018 574.019 62.442L571.901 62.977C571.91 63.041 571.832 63.476 571.714 64.071C571.317 64.104 571.273 64.583 571.62 64.538C571.565 64.806 571.507 65.092 571.446 65.382C570.993 65.41 571.013 65.815 571.359 65.798C571.107 67.001 570.859 68.157 570.841 68.273C570.838 68.294 570.81 68.38 570.764 68.517L570.888 68.015C570.397 68.058 570.395 68.568 570.759 68.53C570.652 68.844 570.447 69.418 570.19 70.129C569.68 70.179 569.779 70.642 570.013 70.62C569.07 73.223 567.649 77.087 567.565 77.339C567.439 77.715 567.501 77.717 567.709 77.613C567.918 77.51 569.387 76.704 569.508 76.485C569.568 76.378 571.365 73.525 573.137 70.465C573.855 69.225 574.57 67.952 575.195 66.829C575.546 66.773 577.757 66.523 577.84 66.507C577.926 66.49 578.074 66.294 577.993 65.876C577.911 65.458 577.711 65.402 577.606 65.42C577.505 65.436 575.997 65.571 575.888 65.58C576.508 64.459 576.961 63.634 577.112 63.39C577.763 62.335 577.956 62.141 578.13 61.419C579.652 61.039 581.011 60.697 581.903 60.465C584.876 59.693 586.624 58.38 586.481 57.789C586.304 57.06 583.527 57.217 581.455 57.504C580.702 57.608 579.151 57.977 577.334 58.443C576.826 57.893 576.565 57.819 575.48 57.213C575.229 57.073 574.432 56.574 573.344 55.896C573.409 55.867 574.825 55.235 574.923 55.199C575.023 55.163 575.171 55.016 575.039 54.612C574.907 54.207 574.682 54.108 574.598 54.135C574.517 54.161 572.464 55.019 572.131 55.142C571.039 54.466 569.795 53.702 568.563 52.969C565.525 51.16 562.566 49.544 562.462 49.479C562.25 49.347 560.573 49.359 560.341 49.37C560.109 49.382 560.056 49.413 560.349 49.68C560.545 49.859 563.668 52.542 565.759 54.356C565.544 54.45 565.682 54.903 566.153 54.698C566.723 55.194 567.182 55.596 567.428 55.818C567.092 55.963 567.341 56.407 567.791 56.205L567.438 55.827C567.545 55.924 567.611 55.985 567.624 56.003C567.696 56.096 568.476 56.984 569.282 57.912C568.971 58.065 569.151 58.429 569.56 58.233C569.754 58.457 569.945 58.678 570.123 58.886C569.798 59.016 570.069 59.413 570.432 59.248C570.811 59.694 571.084 60.026 571.123 60.103C569.954 60.422 568.921 60.704 568.176 60.903C565.071 61.731 563.189 62.26 561.244 63.042C561.238 63.044 561.232 63.047 561.226 63.049C560.441 62.349 556.432 60.221 556.244 60.192C556.036 60.158 555.187 60.49 555.189 60.64Z" fill="white"/>
        <path opacity="0.66" d="M563.369 56.32C560.161 55.8 507.243 67.886 501.094 69.811C534.122 61.923 560.713 58.863 563.369 56.32Z" fill="white"/>
        <path opacity="0.66" d="M566.235 70.415C563.027 69.895 510.109 81.981 503.959 83.906C536.988 76.018 563.579 72.958 566.235 70.415Z" fill="white"/>
        <path d="M206.858 26.75C206.858 27.837 205.977 28.718 204.89 28.718C203.803 28.718 202.922 27.837 202.922 26.75C202.922 25.663 203.803 24.782 204.89 24.782C205.977 24.782 206.858 25.663 206.858 26.75Z" fill="#D4E4ED"/>
        <path d="M311.175 57.75C311.175 58.565 310.514 59.226 309.699 59.226C308.884 59.226 308.223 58.565 308.223 57.75C308.223 56.935 308.884 56.274 309.699 56.274C310.514 56.274 311.175 56.935 311.175 57.75Z" fill="#D4E4ED"/>
        <path d="M271.154 30.523C271.154 31.701 270.199 32.655 269.022 32.655C267.844 32.655 266.89 31.7 266.89 30.523C266.89 29.345 267.845 28.391 269.022 28.391C270.2 28.39 271.154 29.345 271.154 30.523Z" fill="#D4E4ED"/>
        <path d="M248.848 60.21C248.848 61.297 247.967 62.178 246.88 62.178C245.793 62.178 244.912 61.297 244.912 60.21C244.912 59.123 245.793 58.242 246.88 58.242C247.966 58.242 248.848 59.123 248.848 60.21Z" fill="#D4E4ED"/>
        <path d="M166.383 62.602C166.383 63.453 165.693 64.143 164.842 64.143C163.991 64.143 163.301 63.453 163.301 62.602C163.301 61.751 163.991 61.061 164.842 61.061C165.693 61.061 166.383 61.751 166.383 62.602Z" fill="#D4E4ED"/>
        <path d="M165.253 28.599C165.764 28.599 166.178 28.1849 166.178 27.674C166.178 27.1632 165.764 26.749 165.253 26.749C164.742 26.749 164.328 27.1632 164.328 27.674C164.328 28.1849 164.742 28.599 165.253 28.599Z" fill="#D4E4ED"/>
        <path d="M133.715 45.652C133.715 46.56 132.979 47.296 132.071 47.296C131.163 47.296 130.427 46.56 130.427 45.652C130.427 44.744 131.163 44.008 132.071 44.008C132.979 44.008 133.715 44.744 133.715 45.652Z" fill="#D4E4ED"/>
        <path d="M84.61 25.825C84.61 26.563 84.012 27.16 83.275 27.16C82.537 27.16 81.939 26.562 81.939 25.825C81.939 25.087 82.537 24.49 83.275 24.49C84.012 24.489 84.61 25.087 84.61 25.825Z" fill="#D4E4ED"/>
        <path d="M37.148 72.465C37.148 73.883 35.998 75.033 34.58 75.033C33.162 75.033 32.012 73.883 32.012 72.465C32.012 71.047 33.162 69.897 34.58 69.897C35.998 69.897 37.148 71.046 37.148 72.465Z" fill="#D4E4ED"/>
        <path d="M95.499 102.154C96.4069 102.154 97.143 101.418 97.143 100.51C97.143 99.602 96.4069 98.866 95.499 98.866C94.591 98.866 93.855 99.602 93.855 100.51C93.855 101.418 94.591 102.154 95.499 102.154Z" fill="#D4E4ED"/>
        <path d="M82.966 52.946C82.966 53.457 82.5519 53.871 82.0409 53.871C81.5299 53.871 81.1169 53.457 81.1169 52.946C81.1169 52.435 81.5309 52.021 82.0409 52.021C82.5519 52.021 82.966 52.435 82.966 52.946Z" fill="#D4E4ED"/>
        <path d="M31.835 33.843C31.835 34.931 30.953 35.813 29.865 35.813C28.777 35.813 27.895 34.931 27.895 33.843C27.895 32.755 28.777 31.873 29.865 31.873C30.953 31.874 31.835 32.755 31.835 33.843Z" fill="#D4E4ED"/>
        <path d="M16.406 133.144C16.406 135.229 14.716 136.919 12.631 136.919C10.546 136.919 8.85596 135.229 8.85596 133.144C8.85596 131.059 10.546 129.369 12.631 129.369C14.716 129.369 16.406 131.059 16.406 133.144Z" fill="#D4E4ED"/>
        <path d="M64.005 124.937C64.005 125.571 63.491 126.086 62.856 126.086C62.222 126.086 61.707 125.572 61.707 124.937C61.707 124.302 62.221 123.788 62.856 123.788C63.49 123.788 64.005 124.303 64.005 124.937Z" fill="#D4E4ED"/>
        <path d="M301.998 97.199C301.998 97.924 301.41 98.512 300.685 98.512C299.96 98.512 299.372 97.924 299.372 97.199C299.372 96.474 299.96 95.886 300.685 95.886C301.41 95.886 301.998 96.474 301.998 97.199Z" fill="#D4E4ED"/>
        <path d="M352.88 31.709C352.88 32.162 352.513 32.53 352.059 32.53C351.606 32.53 351.238 32.163 351.238 31.709C351.238 31.256 351.605 30.888 352.059 30.888C352.512 30.889 352.88 31.256 352.88 31.709Z" fill="#D4E4ED"/>
        <path d="M350.418 62.075C350.871 62.075 351.239 61.7074 351.239 61.254C351.239 60.8006 350.871 60.433 350.418 60.433C349.965 60.433 349.597 60.8006 349.597 61.254C349.597 61.7074 349.965 62.075 350.418 62.075Z" fill="#D4E4ED"/>
        <path d="M362.195 52.093C362.195 52.688 361.713 53.171 361.117 53.171C360.522 53.171 360.039 52.688 360.039 52.093C360.039 51.498 360.522 51.015 361.117 51.015C361.713 51.015 362.195 51.498 362.195 52.093Z" fill="#D4E4ED"/>
        <path d="M409.372 36.048C409.372 37.172 408.461 38.084 407.336 38.084C406.212 38.084 405.3 37.173 405.3 36.048C405.3 34.923 406.211 34.013 407.336 34.013C408.46 34.013 409.372 34.924 409.372 36.048Z" fill="#D4E4ED"/>
        <path d="M408.653 83.344C408.653 84.005 408.117 84.541 407.456 84.541C406.795 84.541 406.259 84.005 406.259 83.344C406.259 82.683 406.795 82.147 407.456 82.147C408.117 82.147 408.653 82.683 408.653 83.344Z" fill="#D4E4ED"/>
        <path d="M469.6 48.62C470.988 48.62 472.114 47.4945 472.114 46.106C472.114 44.7176 470.988 43.592 469.6 43.592C468.212 43.592 467.086 44.7176 467.086 46.106C467.086 47.4945 468.212 48.62 469.6 48.62Z" fill="#D4E4ED"/>
        <path d="M451.04 57.721C451.04 58.382 450.504 58.918 449.843 58.918C449.182 58.918 448.646 58.382 448.646 57.721C448.646 57.06 449.182 56.524 449.843 56.524C450.504 56.523 451.04 57.059 451.04 57.721Z" fill="#D4E4ED"/>
        <path d="M612.207 33.653C612.207 35.306 610.867 36.646 609.214 36.646C607.561 36.646 606.221 35.306 606.221 33.653C606.221 32 607.561 30.659 609.214 30.659C610.867 30.66 612.207 32 612.207 33.653Z" fill="#D4E4ED"/>
        <path d="M630.168 65.144C630.168 65.805 629.632 66.341 628.971 66.341C628.31 66.341 627.774 65.805 627.774 65.144C627.774 64.483 628.31 63.947 628.971 63.947C629.631 63.947 630.168 64.483 630.168 65.144Z" fill="#D4E4ED"/>
        <path d="M593.289 91.247C593.289 92.173 592.539 92.923 591.613 92.923C590.687 92.923 589.937 92.172 589.937 91.247C589.937 90.321 590.688 89.571 591.613 89.571C592.538 89.571 593.289 90.321 593.289 91.247Z" fill="#D4E4ED"/>
        <path d="M544.196 129.324C544.725 129.324 545.154 128.895 545.154 128.366C545.154 127.837 544.725 127.408 544.196 127.408C543.667 127.408 543.238 127.837 543.238 128.366C543.238 128.895 543.667 129.324 544.196 129.324Z" fill="#D4E4ED"/>
        <path d="M538.209 29.103C538.209 29.698 537.727 30.181 537.131 30.181C536.535 30.181 536.053 29.698 536.053 29.103C536.053 28.508 536.535 28.025 537.131 28.025C537.727 28.025 538.209 28.508 538.209 29.103Z" fill="#D4E4ED"/>
        <path d="M700.573 34.611C700.573 35.735 699.662 36.647 698.538 36.647C697.414 36.647 696.502 35.736 696.502 34.611C696.502 33.487 697.413 32.575 698.538 32.575C699.662 32.576 700.573 33.487 700.573 34.611Z" fill="#D4E4ED"/>
        <path d="M675.548 67.299C676.275 67.299 676.865 66.7094 676.865 65.982C676.865 65.2547 676.275 64.665 675.548 64.665C674.821 64.665 674.231 65.2547 674.231 65.982C674.231 66.7094 674.821 67.299 675.548 67.299Z" fill="#D4E4ED"/>
        <path d="M716.618 50.896C716.618 51.491 716.136 51.974 715.54 51.974C714.945 51.974 714.462 51.492 714.462 50.896C714.462 50.3 714.944 49.818 715.54 49.818C716.136 49.818 716.618 50.3 716.618 50.896Z" fill="#D4E4ED"/>
        <path d="M745.834 63.348C745.834 64.34 745.03 65.144 744.038 65.144C743.046 65.144 742.242 64.34 742.242 63.348C742.242 62.356 743.046 61.552 744.038 61.552C745.03 61.552 745.834 62.356 745.834 63.348Z" fill="#D4E4ED"/>
        <path d="M725.958 103.46C725.958 104.915 724.779 106.094 723.324 106.094C721.869 106.094 720.69 104.915 720.69 103.46C720.69 102.005 721.869 100.826 723.324 100.826C724.778 100.826 725.958 102.005 725.958 103.46Z" fill="#D4E4ED"/>
        <path d="M701.771 89.331C701.771 89.86 701.342 90.289 700.813 90.289C700.284 90.289 699.855 89.86 699.855 89.331C699.855 88.802 700.284 88.373 700.813 88.373C701.342 88.373 701.771 88.802 701.771 89.331Z" fill="#D4E4ED"/>
        <path d="M653.876 108.729C653.876 109.258 653.447 109.687 652.918 109.687C652.389 109.687 651.96 109.258 651.96 108.729C651.96 108.2 652.389 107.771 652.918 107.771C653.447 107.771 653.876 108.2 653.876 108.729Z" fill="#D4E4ED"/>
        <path d="M627.533 109.567C627.533 110.03 627.158 110.405 626.695 110.405C626.232 110.405 625.857 110.03 625.857 109.567C625.857 109.104 626.232 108.729 626.695 108.729C627.158 108.729 627.533 109.104 627.533 109.567Z" fill="#D4E4ED"/>
        <path d="M585.386 122.858C585.386 123.652 584.743 124.295 583.949 124.295C583.155 124.295 582.512 123.652 582.512 122.858C582.512 122.065 583.155 121.421 583.949 121.421C584.742 121.421 585.386 122.064 585.386 122.858Z" fill="#D4E4ED"/>
        <path d="M553.057 105.855C553.057 106.119 552.843 106.334 552.578 106.334C552.313 106.334 552.099 106.119 552.099 105.855C552.099 105.59 552.313 105.376 552.578 105.376C552.842 105.376 553.057 105.59 553.057 105.855Z" fill="#D4E4ED"/>
        <path d="M509.353 111.842C510.08 111.842 510.67 111.252 510.67 110.525C510.67 109.798 510.08 109.208 509.353 109.208C508.626 109.208 508.036 109.798 508.036 110.525C508.036 111.252 508.626 111.842 509.353 111.842Z" fill="#D4E4ED"/>
        <path d="M434.277 97.473C434.277 97.87 433.955 98.191 433.558 98.191C433.161 98.191 432.84 97.869 432.84 97.473C432.84 97.076 433.162 96.755 433.558 96.755C433.955 96.755 434.277 97.077 434.277 97.473Z" fill="#D4E4ED"/>
        <path d="M363.392 96.516C363.921 96.516 364.35 96.0871 364.35 95.558C364.35 95.0289 363.921 94.6 363.392 94.6C362.863 94.6 362.434 95.0289 362.434 95.558C362.434 96.0871 362.863 96.516 363.392 96.516Z" fill="#D4E4ED"/>
        <path d="M304.721 122.978C304.721 123.705 304.131 124.295 303.404 124.295C302.677 124.295 302.087 123.705 302.087 122.978C302.087 122.251 302.677 121.661 303.404 121.661C304.131 121.66 304.721 122.25 304.721 122.978Z" fill="#D4E4ED"/>
        <path d="M337.529 146.686C337.529 147.81 336.618 148.722 335.493 148.722C334.369 148.722 333.457 147.811 333.457 146.686C333.457 145.562 334.368 144.65 335.493 144.65C336.618 144.65 337.529 145.561 337.529 146.686Z" fill="white"/>
        <path d="M409.372 137.107C409.372 137.702 408.889 138.185 408.294 138.185C407.699 138.185 407.216 137.703 407.216 137.107C407.216 136.512 407.698 136.029 408.294 136.029C408.889 136.029 409.372 136.511 409.372 137.107Z" fill="white"/>
        <path d="M394.524 168.238C394.524 169.098 393.827 169.795 392.967 169.795C392.107 169.795 391.41 169.098 391.41 168.238C391.41 167.378 392.107 166.681 392.967 166.681C393.827 166.682 394.524 167.379 394.524 168.238Z" fill="white"/>
        <path d="M353.574 178.536C353.574 179.396 352.877 180.093 352.017 180.093C351.157 180.093 350.46 179.396 350.46 178.536C350.46 177.676 351.157 176.979 352.017 176.979C352.877 176.979 353.574 177.676 353.574 178.536Z" fill="white"/>
        <path d="M456.069 136.388C456.069 136.983 455.586 137.466 454.991 137.466C454.396 137.466 453.913 136.984 453.913 136.388C453.913 135.793 454.396 135.31 454.991 135.31C455.587 135.311 456.069 135.793 456.069 136.388Z" fill="white"/>
        <path d="M440.982 173.267C440.982 174.127 440.285 174.824 439.425 174.824C438.565 174.824 437.868 174.127 437.868 173.267C437.868 172.407 438.565 171.71 439.425 171.71C440.285 171.711 440.982 172.408 440.982 173.267Z" fill="white"/>
        <path d="M487.919 154.229C487.919 154.626 487.597 154.947 487.2 154.947C486.803 154.947 486.482 154.625 486.482 154.229C486.482 153.832 486.804 153.511 487.2 153.511C487.598 153.511 487.919 153.832 487.919 154.229Z" fill="white"/>
        <path d="M449.603 154.109C449.603 154.836 449.013 155.426 448.286 155.426C447.559 155.426 446.969 154.836 446.969 154.109C446.969 153.382 447.559 152.792 448.286 152.792C449.014 152.792 449.603 153.382 449.603 154.109Z" fill="white"/>
        <path d="M311.905 177.458C311.905 177.855 311.583 178.176 311.187 178.176C310.79 178.176 310.468 177.854 310.468 177.458C310.468 177.061 310.79 176.739 311.187 176.739C311.584 176.74 311.905 177.061 311.905 177.458Z" fill="white"/>
        <path d="M240.063 146.446C240.063 146.909 239.688 147.284 239.225 147.284C238.762 147.284 238.387 146.909 238.387 146.446C238.387 145.983 238.762 145.608 239.225 145.608C239.688 145.608 240.063 145.983 240.063 146.446Z" fill="white"/>
        <path d="M226.173 163.928C226.173 164.655 225.583 165.245 224.856 165.245C224.129 165.245 223.539 164.655 223.539 163.928C223.539 163.201 224.129 162.611 224.856 162.611C225.583 162.611 226.173 163.2 226.173 163.928Z" fill="white"/>
        <path d="M176.243 173.387C177.103 173.387 177.8 172.69 177.8 171.83C177.8 170.97 177.103 170.273 176.243 170.273C175.383 170.273 174.686 170.97 174.686 171.83C174.686 172.69 175.383 173.387 176.243 173.387Z" fill="white"/>
        <path d="M133.856 168.358C134.187 168.358 134.455 168.09 134.455 167.759C134.455 167.428 134.187 167.16 133.856 167.16C133.525 167.16 133.257 167.428 133.257 167.759C133.257 168.09 133.525 168.358 133.856 168.358Z" fill="white"/>
        <path d="M144.512 186.199C144.512 186.662 144.137 187.037 143.674 187.037C143.211 187.037 142.836 186.662 142.836 186.199C142.836 185.736 143.211 185.361 143.674 185.361C144.137 185.361 144.512 185.736 144.512 186.199Z" fill="white"/>
        <path d="M110.267 167.041C110.267 167.636 109.785 168.119 109.189 168.119C108.594 168.119 108.111 167.637 108.111 167.041C108.111 166.445 108.593 165.963 109.189 165.963C109.785 165.963 110.267 166.446 110.267 167.041Z" fill="white"/>
        <path d="M734.494 190.557C734.494 191.608 733.642 192.459 732.592 192.459C731.541 192.459 730.69 191.607 730.69 190.557C730.69 189.507 731.542 188.655 732.592 188.655C733.643 188.655 734.494 189.507 734.494 190.557Z" fill="white"/>
        <path d="M744.217 381.426C744.917 381.426 745.485 380.858 745.485 380.158C745.485 379.458 744.917 378.89 744.217 378.89C743.517 378.89 742.949 379.458 742.949 380.158C742.949 380.858 743.517 381.426 744.217 381.426Z" fill="white"/>
        <path d="M342.199 246.275C342.199 247.367 341.314 248.251 340.223 248.251C339.131 248.251 338.247 247.366 338.247 246.275C338.247 245.184 339.132 244.299 340.223 244.299C341.314 244.299 342.199 245.184 342.199 246.275Z" fill="white"/>
        <path d="M365.915 273.504C365.915 274.353 365.227 275.041 364.378 275.041C363.529 275.041 362.841 274.353 362.841 273.504C362.841 272.655 363.529 271.967 364.378 271.967C365.227 271.967 365.915 272.655 365.915 273.504Z" fill="white"/>
        <path d="M425.344 267.299C425.884 267.299 426.322 266.861 426.322 266.321C426.322 265.781 425.884 265.343 425.344 265.343C424.804 265.343 424.366 265.781 424.366 266.321C424.366 266.861 424.804 267.299 425.344 267.299Z" fill="white"/>
        <path d="M388.426 281.968C388.426 282.508 387.988 282.946 387.448 282.946C386.908 282.946 386.47 282.508 386.47 281.968C386.47 281.428 386.908 280.99 387.448 280.99C387.988 280.99 388.426 281.428 388.426 281.968Z" fill="white"/>
        <path d="M342.584 297.372C343.327 297.372 343.929 296.77 343.929 296.027C343.929 295.284 343.327 294.682 342.584 294.682C341.841 294.682 341.239 295.284 341.239 296.027C341.239 296.77 341.841 297.372 342.584 297.372Z" fill="white"/>
        <path d="M309.455 269.744C309.725 269.744 309.944 269.525 309.944 269.255C309.944 268.985 309.725 268.766 309.455 268.766C309.185 268.766 308.966 268.985 308.966 269.255C308.966 269.525 309.185 269.744 309.455 269.744Z" fill="white"/>
        <path d="M294.418 313.508C295.026 313.508 295.518 313.015 295.518 312.408C295.518 311.8 295.026 311.308 294.418 311.308C293.81 311.308 293.318 311.8 293.318 312.408C293.318 313.015 293.81 313.508 294.418 313.508Z" fill="white"/>
        <path d="M371.312 307.75C372.196 307.75 372.912 307.034 372.912 306.15C372.912 305.266 372.196 304.55 371.312 304.55C370.428 304.55 369.712 305.266 369.712 306.15C369.712 307.034 370.428 307.75 371.312 307.75Z" fill="white"/>
        <path d="M357.981 328.368C357.981 328.957 357.503 329.434 356.915 329.434C356.327 329.434 355.849 328.957 355.849 328.368C355.849 327.779 356.327 327.302 356.915 327.302C357.503 327.302 357.981 327.779 357.981 328.368Z" fill="white"/>
        <path d="M417.348 305.439C417.348 305.733 417.109 305.972 416.815 305.972C416.521 305.972 416.282 305.733 416.282 305.439C416.282 305.145 416.521 304.906 416.815 304.906C417.109 304.906 417.348 305.144 417.348 305.439Z" fill="white"/>
        <path d="M408.816 344.009C408.816 345.187 407.861 346.142 406.683 346.142C405.505 346.142 404.55 345.187 404.55 344.009C404.55 342.831 405.505 341.876 406.683 341.876C407.862 341.877 408.816 342.832 408.816 344.009Z" fill="white"/>
        <path d="M443.833 333.7C444.913 333.7 445.788 332.825 445.788 331.745C445.788 330.665 444.913 329.79 443.833 329.79C442.753 329.79 441.878 330.665 441.878 331.745C441.878 332.825 442.753 333.7 443.833 333.7Z" fill="white"/>
        <path d="M445.788 309.704C445.788 310.588 445.072 311.304 444.188 311.304C443.304 311.304 442.588 310.588 442.588 309.704C442.588 308.821 443.304 308.104 444.188 308.104C445.072 308.105 445.788 308.821 445.788 309.704Z" fill="white"/>
        <path d="M447.388 358.585C448.272 358.585 448.988 357.869 448.988 356.985C448.988 356.101 448.272 355.385 447.388 355.385C446.504 355.385 445.788 356.101 445.788 356.985C445.788 357.869 446.504 358.585 447.388 358.585Z" fill="white"/>
        <path d="M484.536 350.586C484.536 351.273 483.979 351.83 483.292 351.83C482.605 351.83 482.048 351.273 482.048 350.586C482.048 349.899 482.605 349.342 483.292 349.342C483.979 349.342 484.536 349.899 484.536 350.586Z" fill="white"/>
        <path d="M484.892 369.605C484.892 370.587 484.096 371.382 483.115 371.382C482.133 371.382 481.338 370.586 481.338 369.605C481.338 368.623 482.134 367.828 483.115 367.828C484.096 367.828 484.892 368.623 484.892 369.605Z" fill="white"/>
        <path d="M-36.916 399.843V500.017H178.362L361.059 399.843H-36.916Z" fill="#242A3A"/>
        <path d="M784.802 399.843H405.907L567.421 500.017H784.802V399.843Z" fill="#242A3A"/>
        <path d="M405.907 399.843H384.724H361.059H339.876L178.362 500.017H567.421L405.907 399.843Z" fill="#242A3A"/>
        <path d="M647.467 238.699C646.114 238.08 647.894 235.405 644.169 235.134C640.444 234.863 642.657 237.341 641.224 237.079C639.791 236.817 639.302 237.996 637.96 237.196C641.762 219.011 636.023 217.949 635.063 217.152C634.103 216.355 632.629 216.14 630.886 216.829C630.458 215.887 629.363 215.17 626.363 215.656C623.363 216.142 621.222 218.469 619.759 219.61C618.296 220.751 618.21 219.96 617.682 220.017C617.604 220.624 618.046 221.305 618.046 221.305C618.046 221.305 616.388 221.255 615.907 220.485C615.85 221.487 615.082 222.711 616.603 223.627C616.421 224.535 615.91 225.074 618.028 227.029C617.385 229.134 617.553 230.804 618.131 231.405C618.709 232.006 619.329 231.866 618.882 232.802C618.436 233.738 617.718 234.834 619.047 235.303C619.247 236.407 619.304 237.721 619.548 238.041C617.028 238.554 616.397 239.655 616.238 241.7C615.555 242.186 615.968 242.603 615.591 243.286C612.994 243.861 611.854 242.754 612.125 246.457C612.125 246.457 610.553 247.33 609.204 251.342C606.334 253.905 604.247 259.639 603.616 269.382C603.598 269.702 604.424 269.267 604.424 269.267C603.194 279.698 600.333 282.101 599.845 286.482C599.357 290.863 598.863 305.531 599.15 310.022C597.79 311.469 597.755 313.828 599.96 314.837C599.734 315.365 599.002 316.996 599.15 319.61C599.297 322.224 599.816 324.368 600.948 324.334C601.399 325.933 602.325 326.616 603.476 326.377C605.875 329.546 607.955 328.981 607.574 327.67C608.082 328.078 609.509 328.31 608.591 327.121C607.672 325.932 605.81 324.006 606.886 322.399C607.367 324.625 609.434 324.287 608.407 322.333C609.612 322.477 612.171 321.484 614.8 316.552C613.858 322.49 614.978 328.164 614.668 332.318C614.358 336.471 613.331 342.556 615.3 343.956C615.163 346.375 617.813 346.449 617.687 347.352C617.56 348.255 618.141 351.397 618.141 351.397C618.141 351.397 620.035 351.428 621.715 351.22C621.775 354.181 621.136 360.135 621.279 364.314C621.422 368.493 623.066 375.638 625.154 384.325C624.599 384.749 624.321 385.643 625.564 386.472C625.454 387.072 624.628 390.969 624.628 390.969L624.34 393.379C624.34 393.379 624.41 394.824 623.33 395.142C622.25 395.46 622.756 398.598 622.756 398.598C622.756 398.598 619.323 400.3 618.707 403.147C618.091 405.994 621.078 405.48 625.505 404.972C629.932 404.464 633.884 404.308 634.54 403.435C635.196 402.562 635.244 400.366 635.174 398.921C635.104 397.476 635.554 396.213 635.01 395.12C634.465 394.028 635.276 393.088 635.496 391.887C635.716 390.686 635.527 389.993 634.188 389.538C632.849 389.083 633.63 388.672 632.595 386.87C633.164 384.854 632.207 384.345 632.207 384.345C632.207 384.345 632.637 378.075 633.308 374.246C633.979 370.416 633.821 366.809 632.955 363.101C632.088 359.393 632.053 354.943 632.74 350.39C635.589 350.766 636.726 349.682 636.726 349.682L636.941 340.798C639.864 346.2 639.895 352.013 639.895 352.013C639.895 352.013 641.293 352.666 643.089 352.624C644.158 356.559 642.667 362.644 644.157 366.746C645.647 370.848 645.78 373.581 645.137 377.347C643.813 377.918 644.185 380.235 643.491 382.348C642.798 384.461 643.527 386.798 645.249 389.335C646.971 391.872 645.371 394.794 645.126 397.865C644.881 400.936 647.727 403.895 650.309 403.897C652.892 403.899 655.214 402.165 655.431 399.595C655.648 397.025 655.317 393.993 654.877 392.892C654.437 391.791 654.427 389.423 653.554 388.369C652.681 387.315 653.015 386.473 653.577 385.429C654.138 384.385 655.63 382.101 655.452 381.446C655.274 380.79 654.878 378.903 652.984 378.15C652.749 374.693 655.627 364.381 655.659 360.007C655.691 355.633 653.858 352.516 653.915 351.515C653.915 351.515 655.046 351.351 655.367 351.29C655.688 351.229 654.777 347.687 654.777 347.687L655.902 347.433C656.273 345.074 657.105 334.57 655.251 329.468C653.397 324.366 653.436 320.877 653.913 318.048C654.39 315.219 655.161 312.803 654.285 310.057C653.409 307.31 654.279 307.359 653.859 295.119C654.696 297.149 657.609 301.756 657.929 307.327C658.249 312.898 655.826 315.062 655.077 317.082C654.328 319.102 653.877 322.885 654.482 323.395C655.088 323.905 656.227 321.986 656.987 318.38C657.323 325.063 654.482 323.395 655.281 324.709C656.079 326.023 656.215 326.428 657.943 325.335C658.804 325.542 659.559 326.219 660.532 324.45C661.481 324.504 661.617 324.908 662.449 322.813C663.583 322.401 663.918 320.675 664.058 316.796C664.198 312.917 663.726 310.034 663.621 304.872C663.516 299.71 661.78 285.792 660.022 280.729C658.264 275.666 657.392 270.434 657.392 270.434L659.103 269.874C659.103 269.874 657.092 262.826 656.537 259.729C655.982 256.632 653.861 251.301 653.861 251.301C653.861 251.301 653.306 251.19 653.362 248.788C653.417 246.386 652.419 245.609 652.585 244.095C652.75 242.581 650.691 242.144 650.691 242.144C652.773 238.827 648.819 239.319 647.467 238.699ZM606.083 299.957C607.363 296.055 608.734 289.375 609.359 284.177C609.984 278.979 610.623 278.22 613.251 272.737C614.915 274.951 612.665 276.082 613.078 276.967C613.492 277.852 614.508 277.445 615.354 280.077C616.199 282.708 614.553 284.868 614.43 287.047C615.159 288.214 615.36 289.352 613.544 293.357C612.945 294.678 610.96 294.536 608.769 295.804C606.577 297.07 608.006 298.741 606.083 299.957Z" fill="#242A3A"/>
        <path d="M582.685 265.429C582.267 258.305 582.386 255.78 578.663 251.634C574.94 247.489 571.679 248.646 570.75 248.153C570.795 243.803 570.945 242.455 567.711 242.436C564.477 242.417 564.006 242.465 564.202 244.116C564.398 245.767 561.977 246.18 560.041 246.016C560.482 244.792 562.35 240.427 561.106 238.339C562.102 233.542 562.804 231.207 559.581 228.308C556.358 225.409 553.894 225.174 552.451 226.492C549.943 225.668 547.904 227.324 549.018 229.938C547.472 230.666 543.862 231.638 545.613 234.678C543.966 237.167 544.492 239.766 544.62 241.827C542.971 241.964 544.357 245.466 544.803 246.476C542.468 245.774 539.738 246.826 539.812 248.65C536.966 249.64 537.288 250.942 537.463 253.474C537.638 256.006 537.428 259.882 537.993 260.836C534.521 263.458 528.857 266.733 524.345 271.035C523.318 269.717 519.9 272.517 520.056 273.402C518.437 274.716 515.596 275.53 512.111 276.211C508.626 276.892 504.558 277.383 499.922 279.448C495.287 281.513 490.692 281.874 489.409 281.432C488.126 280.99 488.165 279.345 486.539 278.483C484.913 277.621 484.053 276.719 483.786 275.595C483.519 274.472 482.755 274.453 482.67 275.569C482.585 276.684 483.262 277.876 484.012 278.482C484.762 279.088 483.289 279.229 482.107 279.495C480.925 279.761 479.896 280.971 479.703 281.672C479.51 282.373 479.97 282.795 480.197 283.153C479.647 284.022 479.874 284.38 480.453 284.747C479.963 285.558 480.474 286.335 480.821 286.578C481.168 286.821 482.198 288.022 484.163 286.952C486.862 287.193 489.037 287.186 490.232 286.391C491.427 285.596 508.343 286.293 512.608 284.925C516.874 283.557 521.796 281.793 523.701 280.78C525.236 282.992 527.614 281.873 527.76 280.7C530.094 281.461 533.398 278.482 537.146 276.632C537.782 277.059 539.019 276.971 538.875 278.084C538.375 281.776 539.289 282.915 539.747 283.455C540.204 283.995 539.769 287.454 539.702 290.274C539.635 293.094 539.677 296.27 539.319 296.497C538.961 296.724 538.996 297.724 539.097 298.432C539.198 299.14 540.149 298.692 541.32 298.897C541.386 301.074 541.386 303.543 541.07 304.476C540.754 305.409 541.562 306.016 542.182 307.148C542.802 308.28 542.954 309.283 543.42 309.47C543.023 313.811 543.204 318.519 543.216 320.518C543.227 322.517 543.159 325.397 544.286 327.422C545.414 329.448 545.899 331.282 545.952 333.988C545.108 334.85 545.745 335.277 545.881 336.985C546.017 338.693 546.414 339.291 548.416 339.162C549.625 342.718 552.578 352.019 555.25 355.846C554.524 361.649 554.46 364.717 553.6 367.526C552.741 370.335 551.952 377.334 552.41 381.873C551.498 382.134 551.758 383.103 551.731 384.234C550.371 384.315 550.81 384.891 550.908 385.516C549.934 386.002 550.026 386.91 549.738 389.506C549.45 392.102 548.708 394.745 547.473 396.696C546.238 398.648 544.825 398.557 544.942 400.767C545.059 402.977 546.569 403.749 549.423 405.118C552.277 406.488 556.294 406.527 556.379 402.963C556.464 399.4 555.781 397.176 557.835 394.112C559.889 391.048 559.877 389.18 559.842 388.274C560.708 387.559 560.49 387.214 559.998 386.467C559.506 385.72 560.984 385.472 560.051 384.261C560.374 382.571 561.378 380.84 561.977 379.44C563.007 381.332 563.992 382.77 563.973 383.562C562.255 384.427 563.231 386.204 564.354 386.571C563.196 387.675 563.679 388.762 564.987 390.887C566.295 393.012 567.276 394.564 567.508 396.72C567.74 398.876 567.109 401.578 567.863 403.18C568.617 404.783 571.115 404.446 574.242 403.841C577.369 403.236 578.634 402.418 577.073 399.041C575.512 395.665 574.565 392.643 574.513 390.095C574.461 387.547 573.537 385.94 572.835 384.509C572.937 382.587 572.538 382.747 572.096 382.284C571.654 381.821 572.748 381.054 570.441 380.49C569.835 375.042 570.114 368.088 568.153 364.872C566.192 361.656 565.531 358.528 565.808 356.384C566.085 354.24 570.737 341.9 572.449 336.564C573.393 337.322 574.823 334.3 576.221 330.259C577.619 326.217 579.487 321.451 579.069 315.216C580.1 314.675 579.846 313.48 579.189 312.559C578.532 311.638 578.1 310.779 578.912 309.949C579.724 309.119 580.07 308.845 579.358 307.866C578.646 306.887 579.71 304.988 579.753 303.178C583.123 299.523 585.825 300.097 585.206 292.838C585.206 292.838 586.512 292.643 586.427 291.452C586.342 290.261 585.937 290.648 585.495 290.185C585.255 288.368 584.909 283.889 584.909 283.889C584.909 283.889 589.255 279.635 590.548 277.628C591.841 275.621 593.527 273.737 586.057 268.975C586.697 268.254 586.384 267.115 585.159 266.294C583.933 265.473 584.22 265.31 583.807 266.036C583.3 265.911 582.57 265.355 582.685 265.429Z" fill="#242A3A"/>
        <path d="M135.293 320.099L156.506 298.886C157.685 297.707 159.596 297.707 160.774 298.886L181.987 320.099C183.166 321.278 183.166 323.189 181.987 324.367L160.774 345.58C159.595 346.759 157.684 346.759 156.506 345.58L135.293 324.367C134.115 323.189 134.115 321.278 135.293 320.099Z" fill="#242A3A"/>
        <path d="M160.894 341.725H156.387V400.753H160.894V341.725Z" fill="#242A3A"/>
        <path d="M158.563 310.69L152.522 319.241H155.425V331.01H158.563H161.701V319.241H164.604L158.563 310.69Z" fill="white"/>
    </g>
</svg>
