<svg width="750" height="500" viewBox="0 0 750 500" fill="none" xmlns="http://www.w3.org/2000/svg">
    <path d="M475.646 455.832C474.631 427.751 453.69 405.326 427.993 405.326C408.708 405.326 392.107 417.962 384.59 436.133C379.636 432.74 373.795 430.776 367.535 430.776C361.493 430.776 355.839 432.607 350.999 435.786C348.508 399.956 321.391 371.732 288.281 371.732C264.864 371.732 244.449 385.859 233.614 406.8C233.622 406.308 233.648 405.82 233.648 405.326C233.648 371.993 215.269 343.397 189.084 331.202C184.904 262.861 133.35 208.854 70.3575 208.854C44.465 208.854 20.5068 217.983 0.974014 233.477V500H475.695C475.695 500 480.634 473.53 475.646 455.832Z" fill="#E9FFFC"/>
    <path d="M750 0H0V500H750V0Z" fill="url(#paint0_linear_8489_275)"/>
    <path opacity="0.2" d="M228.661 221.022C281.069 221.022 323.554 177.36 323.554 123.5C323.554 69.6401 281.069 25.978 228.661 25.978C176.253 25.978 133.769 69.6401 133.769 123.5C133.769 177.36 176.253 221.022 228.661 221.022Z" fill="#FEFEFE"/>
    <path opacity="0.35" d="M228.661 203.042C271.407 203.042 306.059 167.43 306.059 123.5C306.059 79.5702 271.407 43.958 228.661 43.958C185.916 43.958 151.264 79.5702 151.264 123.5C151.264 167.43 185.916 203.042 228.661 203.042Z" fill="#FEFEFE"/>
    <path opacity="0.35" d="M228.661 181.169C259.652 181.169 284.775 155.35 284.775 123.5C284.775 91.6503 259.652 65.8311 228.661 65.8311C197.67 65.8311 172.547 91.6503 172.547 123.5C172.547 155.35 197.67 181.169 228.661 181.169Z" fill="#FEFEFE"/>
    <path opacity="0.2" d="M228.661 164.104C250.482 164.104 268.171 145.925 268.171 123.5C268.171 101.075 250.482 82.896 228.661 82.896C206.841 82.896 189.152 101.075 189.152 123.5C189.152 145.925 206.841 164.104 228.661 164.104Z" fill="#FEFEFE"/>
    <path d="M228.661 146.25C240.887 146.25 250.798 136.064 250.798 123.5C250.798 110.936 240.887 100.75 228.661 100.75C216.436 100.75 206.525 110.936 206.525 123.5C206.525 136.064 216.436 146.25 228.661 146.25Z" fill="#FEFEFE"/>
    <path d="M469.881 443.047C468.622 409.583 442.653 382.859 410.784 382.859C386.868 382.859 366.281 397.917 356.957 419.572C350.814 415.529 343.57 413.188 335.807 413.188C328.314 413.188 321.303 415.37 315.3 419.159C312.21 376.46 278.581 342.826 237.521 342.826C208.479 342.826 183.162 359.661 169.725 384.616C169.735 384.029 169.767 383.448 169.767 382.859C169.767 343.136 146.975 309.059 114.5 294.526C110.063 224.815 62.5791 167.626 0 152.595V485.998H471.388C472.711 475.001 473.914 456.802 469.881 443.047Z" fill="#D1F4FF"/>
    <path d="M170.283 500C170.283 500 165.026 473.759 170.334 456.215C171.414 428.377 193.704 406.147 221.056 406.147C241.583 406.147 259.253 418.673 267.255 436.687C272.528 433.324 278.746 431.376 285.408 431.376C291.84 431.376 297.857 433.191 303.01 436.343C305.662 400.823 334.525 372.845 369.767 372.845C394.692 372.845 416.422 386.849 427.954 407.609C427.946 407.121 427.918 406.638 427.918 406.148C427.918 373.104 447.481 344.756 475.353 332.667C479.803 264.919 534.675 211.379 601.725 211.379C671.685 211.379 728.399 269.664 728.399 341.562V500H170.283Z" fill="#F0F9FF" fill-opacity="0.49"/>
    <path d="M334.534 500C334.534 500 337.684 484.271 334.503 473.755C333.856 457.069 320.495 443.744 304.1 443.744C291.796 443.744 281.205 451.252 276.408 462.05C273.248 460.034 269.521 458.867 265.528 458.867C261.673 458.867 258.066 459.955 254.977 461.844C253.388 440.554 236.087 423.783 214.964 423.783C200.023 423.783 186.999 432.177 180.086 444.62C180.091 444.327 180.108 444.038 180.108 443.744C180.108 423.937 168.381 406.946 151.675 399.699C149.008 359.091 116.118 326.999 75.9272 326.999C33.9941 327 0 361.936 0 405.031V500H334.534Z" fill="#FEFEFE"/>
    <path d="M393.864 500C393.864 500 390.713 484.271 393.895 473.755C394.542 457.069 407.903 443.744 424.298 443.744C436.602 443.744 447.192 451.252 451.989 462.05C455.15 460.034 458.876 458.867 462.87 458.867C466.725 458.867 470.331 459.955 473.42 461.844C475.009 440.554 492.31 423.783 513.434 423.783C528.374 423.783 541.399 432.177 548.311 444.62C548.307 444.327 548.29 444.038 548.29 443.744C548.29 423.937 560.016 406.946 576.722 399.699C579.389 359.091 612.28 326.999 652.469 326.999C694.403 326.999 728.397 361.935 728.397 405.03V500H393.864Z" fill="#FEFEFE"/>
    <path d="M236.866 148.98C236.866 144.73 234.647 139.25 229.831 137.87C226.25 136.85 222.621 138.71 220.723 141.73C221.268 138.97 221.55 136.12 221.55 133.2C221.55 109.48 202.839 90.25 179.758 90.25C156.678 90.25 137.966 109.48 137.966 133.2C137.966 134.93 138.064 136.64 138.268 138.31C134.045 132.36 124.675 129.93 118.175 131.81C110.128 134.13 107.423 141.18 107.267 149.48C102.947 146.55 97.9257 144.89 92.5156 145.09C87.592 145.27 74.3295 149.79 75.5068 156.75H144.816H214.7H248.309C248.64 142.93 236.866 148.98 236.866 148.98Z" fill="#F0F9FF" fill-opacity="0.49"/>
    <path d="M172.252 145.478C164.31 143.839 157.651 148.82 150.495 151.349C143.399 153.857 136.263 152.912 129.405 150.162C125.797 148.715 122.203 146.88 118.387 146.071C113.878 145.116 111.284 148.607 107.378 150.161C105.606 150.866 104.455 149.371 104.457 147.826C100.819 145.95 96.7921 144.932 92.5156 145.09C87.592 145.27 74.3295 149.79 75.5068 156.75H187.593C184.006 151.205 178.571 146.782 172.252 145.478Z" fill="#FEFEFE"/>
    <path d="M695.73 60.3228C696.498 61.5482 695.556 63.025 694.11 63.025H491.385C494.51 62.698 498.214 63.012 501.302 62.333C504.77 61.57 505.633 59.593 508.694 57.93C517.019 53.407 522.107 64.407 530.227 60.995C538.558 57.494 541.1 52.564 551.208 56.233C556.57 58.1794 566.066 64.242 570.625 57.8534C571.064 57.2378 571.749 56.8119 572.505 56.7895C577.864 56.6308 583.531 54.918 588.845 55.087C601.631 55.494 612.812 60.628 626.024 57.046C641.872 52.749 656.297 42.069 673.648 44.304C681.2 45.2773 691.127 52.978 695.73 60.3228Z" fill="#F0F9FF" fill-opacity="0.49"/>
    <path d="M478.738 137.597C480.001 128.334 492.243 125.181 494.825 115.276C499.239 118.712 496.582 126.62 492.643 129.161C494.962 130.474 494.772 133.593 492.865 135.478C494.804 140.498 486.345 141.637 483.285 141.477C487.319 145.243 494.257 148.478 499.112 151.536C496.554 151.652 494.114 149.597 491.973 148.458C488.939 146.844 488.057 146.912 484.712 146.875C476.279 146.782 479.19 139.432 472.296 137.573C474.514 137.117 476.861 136.898 478.738 137.597Z" fill="#353B49"/>
    <path d="M418.236 179.505C415.66 173.318 422.056 166.694 420.059 159.608C424.021 160.035 425.248 165.921 423.744 168.992C425.647 168.913 426.66 170.906 426.169 172.797C429.181 175.147 424.384 179.083 422.442 180.155C426.289 180.931 431.733 180.27 435.83 180.296C434.296 181.346 432.051 181.014 430.32 181.131C427.867 181.297 427.349 181.677 425.275 182.934C420.049 186.101 419.18 180.463 414.262 181.955C415.461 180.825 416.828 179.793 418.236 179.505Z" fill="#353B49"/>
    <path d="M610.68 179.021C605.886 174.438 609.122 165.719 604.502 160.071C608.293 158.812 611.735 163.682 611.571 167.117C613.279 166.253 614.991 167.653 615.287 169.586C618.967 170.48 616.133 176.076 614.781 177.865C618.605 176.972 623.321 174.101 627.076 172.419C626.088 174.017 623.904 174.649 622.367 175.477C620.191 176.65 619.867 177.213 618.467 179.226C614.937 184.298 611.92 179.505 608.011 182.917C608.663 181.383 609.506 179.87 610.68 179.021Z" fill="#353B49"/>
    <path d="M699.596 225.984C702.099 219.766 711.179 219.835 714.714 213.414C717.186 216.624 713.949 221.641 710.76 222.682C712.145 224.026 711.467 226.163 709.808 227.123C710.279 230.979 704.186 230.206 702.084 229.528C704.234 232.898 708.499 236.436 711.345 239.464C709.543 239.071 708.204 237.189 706.912 235.999C705.082 234.313 704.455 234.197 702.131 233.552C696.275 231.926 699.59 227.345 695.113 224.774C696.738 224.868 698.41 225.15 699.596 225.984Z" fill="#353B49"/>
    <path d="M346.966 132.738C346.032 126.077 353.876 121.376 353.728 114C357.448 115.465 357.154 121.476 354.929 124.044C356.787 124.473 357.264 126.668 356.314 128.363C358.634 131.432 353.011 133.962 350.865 134.482C354.388 136.253 359.812 137.059 363.763 138.172C362.018 138.779 359.932 137.862 358.23 137.516C355.819 137.026 355.223 137.255 352.904 137.918C347.059 139.591 347.637 133.913 342.51 134.049C343.954 133.277 345.533 132.642 346.966 132.738Z" fill="#353B49"/>
    <path d="M529.52 178.316C526.943 172.129 533.339 165.505 531.343 158.419C535.305 158.846 536.532 164.732 535.027 167.803C536.931 167.724 537.943 169.717 537.452 171.608C540.464 173.958 535.668 177.894 533.726 178.966C537.573 179.742 543.017 179.081 547.114 179.107C545.58 180.157 543.334 179.825 541.603 179.942C539.151 180.108 538.633 180.488 536.559 181.745C531.333 184.913 530.464 179.274 525.545 180.766C526.745 179.636 528.111 178.604 529.52 178.316Z" fill="#353B49"/>
    <path d="M430.033 136.276C429.717 135.099 424.365 139.807 423.509 140.813C422.515 141.982 421.614 143.016 420.249 143.742C419.574 144.101 418.69 144.186 418.206 144.743C421.629 144.981 425.389 143.568 428.07 141.447C428.297 143.373 430.937 141.117 431.58 140.852C433.138 140.211 434.095 140.402 435.099 138.627C437.038 139.25 438.687 139.695 440.735 138.984C442.075 138.519 442.5 138.267 443.982 138.402C445.105 138.505 446.424 138.83 447.407 138.443C445.649 137.766 443.067 137.716 441.071 137.317C438.777 136.859 436.261 136.629 434.079 135.775C431.328 134.699 427.9 132.928 425.018 134.489C425.8 134.896 426.43 134.917 427.097 135.542C427.76 136.164 427.697 136.938 430.033 136.276Z" fill="#353B49"/>
    <path d="M380.506 163.847C380.132 163.09 377.122 167.063 376.675 167.871C376.156 168.81 375.682 169.643 374.85 170.333C374.439 170.674 373.847 170.858 373.594 171.307C375.958 170.98 378.33 169.48 379.87 167.651C380.284 168.931 381.779 167.016 382.181 166.744C383.156 166.085 383.834 166.078 384.278 164.724C385.684 164.871 386.868 164.939 388.168 164.162C389.018 163.654 389.273 163.421 390.302 163.301C391.081 163.21 392.024 163.244 392.641 162.839C391.351 162.629 389.584 162.964 388.171 162.977C386.546 162.993 384.8 163.196 383.197 162.926C381.177 162.586 378.602 161.869 376.848 163.344C377.436 163.509 377.869 163.433 378.408 163.765C378.942 164.095 379.005 164.632 380.506 163.847Z" fill="#353B49"/>
    <path d="M572.872 202.658C572.557 201.481 567.204 206.189 566.349 207.195C565.354 208.364 564.453 209.398 563.088 210.124C562.414 210.483 561.529 210.568 561.046 211.124C564.467 211.362 568.228 209.949 570.909 207.828C571.136 209.754 573.776 207.498 574.419 207.233C575.977 206.592 576.934 206.783 577.938 205.008C579.877 205.631 581.526 206.076 583.574 205.365C584.914 204.9 585.339 204.647 586.821 204.783C587.944 204.885 589.263 205.211 590.246 204.824C588.488 204.147 585.907 204.097 583.91 203.698C581.617 203.24 579.1 203.01 576.918 202.156C574.167 201.08 570.739 199.309 567.857 200.87C568.638 201.277 569.27 201.298 569.936 201.923C570.599 202.546 570.538 203.32 572.872 202.658Z" fill="#353B49"/>
    <path d="M731.104 251.362C730.761 250.082 724.939 255.202 724.01 256.296C722.929 257.568 721.949 258.692 720.464 259.482C719.731 259.872 718.769 259.965 718.243 260.57C721.964 260.829 726.055 259.293 728.971 256.985C729.217 259.079 732.088 256.626 732.787 256.338C734.481 255.641 735.522 255.849 736.615 253.918C738.723 254.595 740.517 255.079 742.744 254.306C744.202 253.8 744.664 253.526 746.275 253.673C747.496 253.784 748.931 254.139 750 253.717C748.088 252.981 745.28 252.926 743.109 252.493C740.614 251.995 737.879 251.745 735.505 250.817C732.513 249.647 728.785 247.721 725.651 249.418C726.501 249.86 727.188 249.883 727.912 250.563C728.631 251.24 728.564 252.082 731.104 251.362Z" fill="#353B49"/>
    <path d="M656.988 193.743C656.747 192.84 652.643 196.451 651.987 197.222C651.225 198.118 650.533 198.911 649.487 199.468C648.97 199.743 648.291 199.808 647.921 200.235C650.545 200.418 653.429 199.334 655.485 197.708C655.659 199.185 657.683 197.455 658.175 197.252C659.369 196.761 660.104 196.907 660.874 195.546C662.36 196.024 663.624 196.365 665.195 195.82C666.222 195.464 666.548 195.27 667.685 195.374C668.546 195.453 669.557 195.702 670.311 195.405C668.963 194.886 666.983 194.848 665.453 194.542C663.694 194.191 661.765 194.015 660.091 193.36C657.982 192.535 655.353 191.177 653.144 192.374C653.743 192.686 654.228 192.702 654.739 193.182C655.245 193.657 655.198 194.251 656.988 193.743Z" fill="#353B49"/>
    <path d="M570.17 149.206C569.928 148.303 565.824 151.914 565.168 152.685C564.406 153.581 563.715 154.374 562.669 154.931C562.152 155.206 561.474 155.271 561.103 155.698C563.726 155.881 566.61 154.797 568.666 153.171C568.84 154.647 570.865 152.918 571.357 152.715C572.551 152.224 573.285 152.37 574.055 151.009C575.542 151.486 576.806 151.828 578.376 151.283C579.404 150.927 579.73 150.733 580.866 150.837C581.728 150.916 582.738 151.165 583.493 150.868C582.145 150.349 580.165 150.31 578.634 150.005C576.876 149.654 574.946 149.478 573.273 148.823C571.163 147.998 568.535 146.64 566.325 147.837C566.925 148.149 567.409 148.165 567.92 148.644C568.427 149.12 568.38 149.714 570.17 149.206Z" fill="#353B49"/>
    <path d="M510.895 205.933C511.228 204.002 500.305 207.039 498.389 207.892C496.162 208.884 494.162 209.744 491.694 209.831C490.475 209.874 489.135 209.37 488.06 209.835C492.864 212.606 499.268 213.221 504.58 212.044C503.617 214.998 508.96 213.596 510.07 213.668C512.759 213.842 514.02 214.798 516.668 212.934C519.063 215.211 521.156 217.025 524.604 217.446C526.86 217.721 527.646 217.656 529.705 218.903C531.265 219.847 532.96 221.255 534.646 221.389C532.55 219.161 528.838 217.259 526.21 215.266C523.189 212.976 519.695 210.861 517.101 208.075C513.833 204.565 510.049 199.567 504.82 199.788C505.682 200.932 506.584 201.41 507.13 202.789C507.673 204.16 507.064 205.239 510.895 205.933Z" fill="#353B49"/>
    <path d="M262.991 125.149C261.217 123.272 259.413 121.299 257.527 119.351C256.297 118.07 255.044 116.768 253.794 115.466C254.602 115.46 255.417 115.458 256.216 115.451C258.003 115.448 259.761 115.389 261.462 115.363C264.868 115.293 268.044 115.184 270.77 115.055C276.217 114.818 279.847 114.483 279.847 114.483C279.847 114.483 276.217 114.146 270.77 113.908C268.044 113.779 264.868 113.67 261.462 113.6C259.762 113.574 258.003 113.518 256.216 113.515C255.417 113.509 254.602 113.503 253.794 113.497C255.043 112.198 256.297 110.896 257.527 109.615C259.413 107.665 261.217 105.695 262.991 103.815C266.519 100.039 269.772 96.47 272.519 93.371C278.038 87.196 281.535 82.894 281.535 82.894C281.535 82.894 277.347 86.486 271.34 92.157C268.324 94.984 264.852 98.324 261.177 101.951C259.35 103.775 257.429 105.628 255.535 107.566C254.288 108.83 253.019 110.117 251.754 111.401C251.751 110.569 251.746 109.733 251.74 108.912C251.739 107.076 251.681 105.27 251.657 103.52C251.588 100.022 251.483 96.755 251.358 93.958C251.126 88.36 250.798 84.628 250.798 84.628C250.798 84.628 250.47 88.36 250.237 93.958C250.112 96.755 250.007 100.022 249.939 103.52C249.913 105.27 249.856 107.077 249.856 108.912C249.85 109.733 249.846 110.569 249.84 111.401C248.576 110.117 247.308 108.83 246.062 107.566C244.172 105.622 242.249 103.772 240.42 101.948C236.747 98.32 233.273 94.981 230.259 92.154C224.25 86.486 220.061 82.894 220.061 82.894C220.061 82.894 223.555 87.198 229.073 93.374C231.822 96.473 235.073 100.042 238.602 103.818C240.377 105.695 242.177 107.671 244.067 109.615C245.298 110.896 246.551 112.199 247.801 113.497C246.991 113.503 246.177 113.509 245.38 113.512C243.593 113.515 241.833 113.574 240.131 113.597C236.728 113.668 233.55 113.776 230.826 113.905C225.379 114.143 221.748 114.483 221.748 114.483C221.748 114.483 225.38 114.82 230.826 115.058C233.55 115.187 236.728 115.295 240.131 115.366C241.833 115.393 243.593 115.451 245.38 115.451C246.178 115.457 246.991 115.463 247.801 115.466C246.551 116.768 245.298 118.07 244.067 119.351C242.177 121.295 240.377 123.268 238.602 125.149C235.073 128.923 231.822 132.494 229.073 135.59C223.555 141.765 220.061 146.073 220.061 146.073C220.061 146.073 224.25 142.481 230.259 136.81C233.273 133.986 236.747 130.644 240.42 127.016C242.248 125.192 244.172 123.342 246.062 121.401C247.309 120.134 248.577 118.85 249.84 117.565C249.846 118.395 249.852 119.23 249.856 120.052C249.861 121.888 249.914 123.697 249.941 125.444C250.011 128.942 250.115 132.209 250.239 135.009C250.472 140.607 250.799 144.339 250.799 144.339C250.799 144.339 251.124 140.606 251.356 135.009C251.482 132.209 251.586 128.942 251.656 125.444C251.68 123.697 251.735 121.887 251.739 120.052C251.745 119.231 251.749 118.396 251.754 117.563C253.02 118.847 254.288 120.135 255.535 121.398C257.429 123.339 259.349 125.192 261.177 127.013C264.852 130.64 268.324 133.983 271.34 136.807C277.347 142.477 281.535 146.073 281.535 146.073C281.535 146.073 278.038 141.768 272.519 135.593C269.772 132.497 266.519 128.928 262.991 125.149Z" fill="white"/>
    <defs>
        <linearGradient id="paint0_linear_8489_275" x1="382.011" y1="475.066" x2="367.012" y2="-6.40938" gradientUnits="userSpaceOnUse">
            <stop stop-color="#DDF7F2" stop-opacity="0.32"/>
            <stop offset="1" stop-color="#96D1F2"/>
        </linearGradient>
    </defs>
</svg>
